<?xml version="1.0" encoding="UTF-8" standalone="no"?>
<svg
   xmlns:dc="http://purl.org/dc/elements/1.1/"
   xmlns:cc="http://creativecommons.org/ns#"
   xmlns:rdf="http://www.w3.org/1999/02/22-rdf-syntax-ns#"
   xmlns:svg="http://www.w3.org/2000/svg"
   xmlns="http://www.w3.org/2000/svg"
   xmlns:sodipodi="http://sodipodi.sourceforge.net/DTD/sodipodi-0.dtd"
   xmlns:inkscape="http://www.inkscape.org/namespaces/inkscape"
   width="256"
   height="256"
   viewBox="0 0 67.733331 67.733335"
   version="1.1"
   id="svg8"
   inkscape:version="1.0.1 (0767f8302a, 2020-10-17)"
   sodipodi:docname="pipapo_favicon.svg"
   inkscape:export-filename="pipapo_favicon_64x64.png"
   inkscape:export-xdpi="24"
   inkscape:export-ydpi="24">
  <defs
     id="defs2" />
  <sodipodi:namedview
     id="base"
     pagecolor="#ffffff"
     bordercolor="#666666"
     borderopacity="1.0"
     inkscape:pageopacity="0.0"
     inkscape:pageshadow="2"
     inkscape:zoom="1.979899"
     inkscape:cx="111.73315"
     inkscape:cy="130.54469"
     inkscape:document-units="px"
     inkscape:current-layer="layer1"
     inkscape:document-rotation="0"
     showgrid="false"
     units="px"
     inkscape:window-width="1528"
     inkscape:window-height="836"
     inkscape:window-x="72"
     inkscape:window-y="27"
     inkscape:window-maximized="1"
     inkscape:snap-global="false" />
  <metadata
     id="metadata5">
    <rdf:RDF>
      <cc:Work
         rdf:about="">
        <dc:format>image/svg+xml</dc:format>
        <dc:type
           rdf:resource="http://purl.org/dc/dcmitype/StillImage" />
        <dc:title></dc:title>
      </cc:Work>
    </rdf:RDF>
  </metadata>
  <g
     inkscape:label="Layer 1"
     inkscape:groupmode="layer"
     id="layer1">
    <path
       style="fill:#ff7f2a;stroke:#ff7f2a;stroke-width:0.264583px;stroke-linecap:butt;stroke-linejoin:miter;stroke-opacity:1"
       d="m 53.006408,39.033274 c -3.304662,0.494158 -6.090272,3.748865 -7.405416,6.876666 -1.344262,3.197045 -1.7974,7.631457 0.227815,10.431425 2.068718,2.860114 6.460023,3.817765 9.921127,3.38273 2.653951,-0.333582 5.509152,-1.992249 6.760447,-4.399788 1.807869,-3.478416 1.77447,-8.501643 -0.329133,-11.802985 -1.847189,-2.898934 -5.818232,-4.989972 -9.17484,-4.488048 z"
       id="path40-3"
       sodipodi:nodetypes="aaaaaaa" />
    <path
       style="fill:#ff7f2a;stroke:#ff7f2a;stroke-width:0.264583px;stroke-linecap:butt;stroke-linejoin:miter;stroke-opacity:1"
       d="m 52.417852,15.53011 c 0,0 -2.888802,-2.985114 -4.721409,-3.476765 -1.764573,-0.473398 -3.650431,0.181843 -5.410314,0.676581 -1.584324,0.445384 -3.38759,0.754597 -4.54888,2.0389 -1.374067,1.519618 -1.789403,3.882598 -2.215377,5.990043 -0.26132,1.292845 -0.332463,2.655503 -0.186312,3.970827 0.297828,2.680443 0.723076,5.553601 2.139095,7.742346 0.75234,1.162895 1.940805,1.979397 3.138977,2.495083 2.298683,0.989336 4.907687,1.404414 7.339145,0.963791 1.452607,-0.263234 2.824216,-1.10148 3.997192,-2.094717 1.632886,-1.382675 4.017803,-5.197913 4.017803,-5.197913 l 0.590542,4.263641 3.287317,-0.435203 c 0,0 -1.767629,-7.816187 -2.441453,-11.773792 -0.532977,-3.130368 -1.264218,-9.454636 -1.264218,-9.454636 l -3.657389,-0.262099 z"
       id="path38"
       sodipodi:nodetypes="caaaaaaaaacccaccc" />
    <path
       style="fill:#b3b3b3;stroke:#b3b3b3;stroke-width:0.264583px;stroke-linecap:butt;stroke-linejoin:miter;stroke-opacity:1"
       d="m 3.7344958,19.627813 c 1.3318637,2.342 1.5824979,5.184667 1.865464,7.863685 0.2743662,2.597596 -0.175961,7.834123 -0.175961,7.834123 l 2.2002827,-0.09476 c 0,0 0.9680733,-5.472289 0.7218884,-8.207692 -0.085401,-0.948906 -0.7547865,-2.756849 -0.7547865,-2.756849 0,0 1.5149597,1.083315 2.3965986,1.125481 1.287814,0.0616 2.957552,-0.210157 3.641776,-1.302385 1.199812,-1.91526 0.447817,-4.812678 -0.733399,-6.739452 C 12.137432,16.112014 10.697747,15.087857 9.2504521,14.964288 7.6978729,14.83173 5.8303611,15.530365 4.9617248,16.82341 4.6064461,17.352275 4.921502,18.734062 4.921502,18.734062 L 3.917064,17.85157 2.4355377,18.369194 c 0,0 1.0009577,0.734604 1.2989581,1.258619 z"
       id="path28"
       sodipodi:nodetypes="aaccacaaaaaccca" />
    <path
       style="fill:#ffffff;stroke:#b3b3b3;stroke-width:0.264583px;stroke-linecap:butt;stroke-linejoin:miter;stroke-opacity:1"
       d="m 6.6468085,19.935799 c 0.023819,-0.584248 0.1123872,-1.213151 0.4386033,-1.698533 0.2683235,-0.399243 0.6966011,-0.724173 1.1575865,-0.862082 0.546517,-0.163497 1.195391,-0.148897 1.7084663,0.100366 0.7824564,0.380136 1.3606054,1.165975 1.7300654,1.953241 0.342614,0.730061 0.378997,1.584756 0.367803,2.391066 -0.0062,0.450509 0.06705,1.00224 -0.242511,1.329747 -0.512743,0.542465 -1.436655,0.6208 -2.1772192,0.525876 C 8.6636583,23.551668 7.6245283,23.084988 7.0548305,22.295532 6.5876437,21.64813 6.6142929,20.733375 6.6468085,19.935799 Z"
       id="path30"
       sodipodi:nodetypes="aaaaaaaaaa" />
    <path
       style="fill:#ff7f2a;stroke:#ff7f2a;stroke-width:0.264583px;stroke-linecap:butt;stroke-linejoin:miter;stroke-opacity:1"
       d="m 13.867053,9.0199479 c 0,0 -0.08342,10.1452661 3.421306,13.5981401 1.365675,1.345472 3.763809,1.772088 5.805587,1.734399 1.988923,-0.03672 5.570987,-1.896723 5.570987,-1.896723 L 27.20964,19.393082 c 0,0 -2.087852,1.319272 -3.30244,1.374374 -1.551181,0.07037 -3.366931,-0.334979 -4.397875,-1.364391 -2.874092,-2.869821 -2.804724,-11.23917 -2.804724,-11.23917 z"
       id="path32"
       sodipodi:nodetypes="caaccaacc" />
    <path
       style="fill:#ff7f2a;stroke:#ff7f2a;stroke-width:0.264583px;stroke-linecap:butt;stroke-linejoin:miter;stroke-opacity:1"
       d="m 10.448304,3.8867921 c 0.06928,-1.0647174 1.369965,-2.1046953 2.561539,-2.2549107 1.355697,-0.1709057 3.154606,0.5979845 3.606193,1.743484 0.312272,0.7921119 -0.315054,1.8553669 -1.104075,2.3192561 -0.954261,0.5610379 -2.403748,0.4401506 -3.435619,0 C 11.292391,5.360223 10.398226,4.6564697 10.448304,3.8867921 Z"
       id="path34"
       sodipodi:nodetypes="aaaaaa" />
    <path
       style="fill:#ffffff;stroke:#ff7f2a;stroke-width:0.264583px;stroke-linecap:butt;stroke-linejoin:miter;stroke-opacity:1"
       d="m 41.13224,16.705611 c -1.657856,1.434084 -2.713351,3.942869 -2.820305,6.282957 -0.138553,3.031342 0.737638,6.665318 2.892347,8.512688 1.936658,1.660421 5.058368,1.94069 7.285196,0.823692 2.262855,-1.135067 4.003202,-3.995048 4.361521,-6.738234 0.364844,-2.793134 -0.722457,-5.98924 -2.500604,-7.993695 -1.204973,-1.358333 -3.12427,-1.812583 -4.831853,-1.940049 -1.492098,-0.111383 -3.203678,0.02963 -4.386302,1.052641 z"
       id="path36"
       sodipodi:nodetypes="aaaaaaaa" />
    <path
       style="fill:#ffffff;stroke:#ff7f2a;stroke-width:0.264583px;stroke-linecap:butt;stroke-linejoin:miter;stroke-opacity:1"
       d="m 53.244841,43.058868 c -2.205627,0.337103 -4.064823,2.557395 -4.942589,4.691114 -0.897198,2.180956 -1.199636,5.206017 0.152051,7.116096 1.380721,1.951107 4.311605,2.604397 6.621646,2.307626 1.771324,-0.227563 3.676968,-1.35907 4.512117,-3.001442 1.206625,-2.3729 1.184333,-5.799639 -0.219672,-8.051744 -1.232868,-1.977591 -3.883257,-3.404052 -6.123553,-3.06165 z"
       id="path40"
       sodipodi:nodetypes="aaaaaaa" />
    <path
       style="fill:#b3b3b3;stroke:#b3b3b3;stroke-width:0.264583px;stroke-linecap:butt;stroke-linejoin:miter;stroke-opacity:1"
       d="m 23.224655,30.498555 c 1.331864,2.341999 1.582498,5.184667 1.865464,7.863685 0.274367,2.597596 -0.175961,7.834123 -0.175961,7.834123 l 2.200283,-0.09476 c 0,0 0.968073,-5.472289 0.721888,-8.207692 -0.0854,-0.948906 -0.754786,-2.75685 -0.754786,-2.75685 0,0 1.51496,1.083316 2.396599,1.125482 1.287814,0.0616 2.957552,-0.210157 3.641776,-1.302386 1.199812,-1.91526 0.447817,-4.812678 -0.733399,-6.739452 -0.758927,-1.23795 -2.198612,-2.262107 -3.645907,-2.385676 -1.552579,-0.132558 -3.420091,0.566077 -4.288727,1.859122 -0.355279,0.528865 -0.04022,1.910652 -0.04022,1.910652 l -1.004437,-0.882492 -1.481527,0.517624 c 0,0 1.000958,0.734604 1.298958,1.25862 z"
       id="path28-6"
       sodipodi:nodetypes="aaccacaaaaaccca" />
    <path
       style="fill:#ffffff;stroke:#b3b3b3;stroke-width:0.264583px;stroke-linecap:butt;stroke-linejoin:miter;stroke-opacity:1"
       d="m 26.136968,30.80654 c 0.02382,-0.584248 0.112387,-1.213151 0.438603,-1.698533 0.268324,-0.399243 0.696601,-0.724173 1.157587,-0.862082 0.546517,-0.163497 1.195391,-0.148897 1.708466,0.100366 0.782457,0.380136 1.360606,1.165975 1.730066,1.953241 0.342614,0.730061 0.378997,1.584756 0.367803,2.391066 -0.0062,0.45051 0.06705,1.00224 -0.242511,1.329747 -0.512743,0.542465 -1.436655,0.620801 -2.17722,0.525876 -0.965944,-0.123812 -2.005074,-0.590492 -2.574772,-1.379948 -0.467187,-0.647402 -0.440538,-1.562157 -0.408022,-2.359733 z"
       id="path30-7"
       sodipodi:nodetypes="aaaaaaaaaa" />
    <path
       style="fill:#b3b3b3;stroke:#b3b3b3;stroke-width:0.264583px;stroke-linecap:butt;stroke-linejoin:miter;stroke-opacity:1"
       d="m 32.293228,48.564952 c 1.331864,2.341999 1.582498,5.184667 1.865464,7.863685 0.274367,2.597596 -0.175961,7.834123 -0.175961,7.834123 L 36.183014,64.168 c 0,0 0.968073,-5.472289 0.721888,-8.207692 -0.0854,-0.948906 -0.754786,-2.75685 -0.754786,-2.75685 0,0 1.51496,1.083316 2.396599,1.125482 1.287814,0.0616 2.957552,-0.210157 3.641776,-1.302386 1.199812,-1.91526 0.447817,-4.812678 -0.733399,-6.739452 -0.758927,-1.23795 -2.198612,-2.262107 -3.645907,-2.385676 -1.552579,-0.132558 -3.420091,0.566077 -4.288727,1.859122 -0.355279,0.528865 -0.04022,1.910652 -0.04022,1.910652 l -1.004437,-0.882492 -1.481527,0.517624 c 0,0 1.000958,0.734604 1.298958,1.25862 z"
       id="path28-6-5"
       sodipodi:nodetypes="aaccacaaaaaccca" />
    <path
       style="fill:#ffffff;stroke:#b3b3b3;stroke-width:0.264583px;stroke-linecap:butt;stroke-linejoin:miter;stroke-opacity:1"
       d="m 35.205541,48.872937 c 0.02382,-0.584248 0.112387,-1.213151 0.438603,-1.698533 0.268324,-0.399243 0.696601,-0.724173 1.157587,-0.862082 0.546517,-0.163497 1.195391,-0.148897 1.708466,0.100366 0.782457,0.380136 1.360606,1.165975 1.730066,1.953241 0.342614,0.730061 0.378997,1.584756 0.367803,2.391066 -0.0062,0.45051 0.06705,1.00224 -0.242511,1.329747 -0.512743,0.542465 -1.436655,0.620801 -2.17722,0.525876 -0.965944,-0.123812 -2.005074,-0.590492 -2.574772,-1.379948 -0.467187,-0.647402 -0.440538,-1.562157 -0.408022,-2.359733 z"
       id="path30-7-3"
       sodipodi:nodetypes="aaaaaaaaaa" />
  </g>
</svg>
